<svg width="28" height="28" viewBox="0 0 28 28" fill="none" xmlns="http://www.w3.org/2000/svg">
<g clip-path="url(#clip0_2749_2429)">
<path d="M6.97512 0.287109H1.42411C0.792926 0.287109 0.28125 0.798785 0.28125 1.42997V6.98098C0.28125 7.61216 0.792926 8.12384 1.42411 8.12384H6.97512C7.6063 8.12384 8.11798 7.61216 8.11798 6.98098V1.42997C8.11798 0.798785 7.6063 0.287109 6.97512 0.287109Z" fill="#CED0D6"/>
<path d="M16.772 0.287109H11.221C10.5898 0.287109 10.0781 0.798785 10.0781 1.42997V6.98098C10.0781 7.61216 10.5898 8.12384 11.221 8.12384H16.772C17.4032 8.12384 17.9149 7.61216 17.9149 6.98098V1.42997C17.9149 0.798785 17.4032 0.287109 16.772 0.287109Z" fill="#CED0D6"/>
<path d="M26.5689 0.287109H21.0179C20.3867 0.287109 19.875 0.798785 19.875 1.42997V6.98098C19.875 7.61216 20.3867 8.12384 21.0179 8.12384H26.5689C27.2001 8.12384 27.7117 7.61216 27.7117 6.98098V1.42997C27.7117 0.798785 27.2001 0.287109 26.5689 0.287109Z" fill="#CED0D6"/>
<path d="M6.97512 10.082H1.42411C0.792926 10.082 0.28125 10.5937 0.28125 11.2249V16.7759C0.28125 17.4071 0.792926 17.9188 1.42411 17.9188H6.97512C7.6063 17.9188 8.11798 17.4071 8.11798 16.7759V11.2249C8.11798 10.5937 7.6063 10.082 6.97512 10.082Z" fill="#CED0D6"/>
<path d="M16.772 10.082H11.221C10.5898 10.082 10.0781 10.5937 10.0781 11.2249V16.7759C10.0781 17.4071 10.5898 17.9188 11.221 17.9188H16.772C17.4032 17.9188 17.9149 17.4071 17.9149 16.7759V11.2249C17.9149 10.5937 17.4032 10.082 16.772 10.082Z" fill="#CED0D6"/>
<path d="M26.5689 10.082H21.0179C20.3867 10.082 19.875 10.5937 19.875 11.2249V16.7759C19.875 17.4071 20.3867 17.9188 21.0179 17.9188H26.5689C27.2001 17.9188 27.7117 17.4071 27.7117 16.7759V11.2249C27.7117 10.5937 27.2001 10.082 26.5689 10.082Z" fill="#CED0D6"/>
<path d="M6.97512 19.877H1.42411C0.792926 19.877 0.28125 20.3886 0.28125 21.0198V26.5708C0.28125 27.202 0.792926 27.7137 1.42411 27.7137H6.97512C7.6063 27.7137 8.11798 27.202 8.11798 26.5708V21.0198C8.11798 20.3886 7.6063 19.877 6.97512 19.877Z" fill="#CED0D6"/>
<path d="M16.772 19.877H11.221C10.5898 19.877 10.0781 20.3886 10.0781 21.0198V26.5708C10.0781 27.202 10.5898 27.7137 11.221 27.7137H16.772C17.4032 27.7137 17.9149 27.202 17.9149 26.5708V21.0198C17.9149 20.3886 17.4032 19.877 16.772 19.877Z" fill="#CED0D6"/>
<path d="M26.5689 19.877H21.0179C20.3867 19.877 19.875 20.3886 19.875 21.0198V26.5708C19.875 27.202 20.3867 27.7137 21.0179 27.7137H26.5689C27.2001 27.7137 27.7117 27.202 27.7117 26.5708V21.0198C27.7117 20.3886 27.2001 19.877 26.5689 19.877Z" fill="#CED0D6"/>
</g>
<defs>
<clipPath id="clip0_2749_2429">
<rect width="28" height="28" fill="white"/>
</clipPath>
</defs>
</svg>
