<svg width="16" height="16" viewBox="0 0 16 16" fill="none" xmlns="http://www.w3.org/2000/svg">
<path fill-rule="evenodd" clip-rule="evenodd" d="M6.07844 13.7304C6.23138 14.0171 6.38453 14.2754 6.53093 14.5043C4.97551 14.1545 3.62583 13.2611 2.69189 12.034C3.30828 11.6869 4.09773 11.3271 5.04681 11.0638C5.31655 12.1218 5.6971 13.0154 6.07844 13.7304ZM7.25493 13.1029C6.92364 12.4819 6.59164 11.7062 6.35244 10.7872C6.86738 10.7108 7.41707 10.6667 8.00009 10.6667C8.58302 10.6667 9.13271 10.7108 9.64756 10.7871C9.40836 11.7062 9.07636 12.4819 8.74507 13.1029C8.47947 13.601 8.21484 13.9986 8 14.2895C7.78516 13.9986 7.52053 13.601 7.25493 13.1029ZM6 8C6 8.5192 6.03493 9.012 6.09653 9.47724C6.69058 9.38613 7.32569 9.33333 8.00009 9.33333C8.6744 9.33333 9.30951 9.38604 9.90347 9.47724C9.96507 9.01191 10 8.5192 10 8C10 7.4808 9.96507 6.98809 9.90347 6.52276C9.30951 6.61387 8.6744 6.66667 8.00009 6.66667C7.32569 6.66667 6.69058 6.61387 6.09653 6.52276C6.03493 6.988 6 7.4808 6 8ZM4.78834 6.24782C4.71091 6.79804 4.66667 7.38258 4.66667 8C4.66667 8.61742 4.71091 9.20196 4.78834 9.75218C3.65634 10.0561 2.71895 10.4846 1.99399 10.897C1.57065 10.021 1.33333 9.03822 1.33333 8C1.33333 6.96178 1.57065 5.97906 1.99398 5.103C2.71886 5.51531 3.65627 5.94388 4.78834 6.24782ZM6.35244 5.21284C6.86738 5.28926 7.41707 5.33333 8.00009 5.33333C8.58302 5.33333 9.13271 5.28927 9.64756 5.21286C9.40836 4.29382 9.07636 3.51816 8.74507 2.89707C8.47947 2.39906 8.21484 2.00139 8 1.71051C7.78516 2.00139 7.52053 2.39906 7.25493 2.89705C6.92364 3.51814 6.59164 4.2938 6.35244 5.21284ZM11.2116 6.24791C11.2891 6.79813 11.3333 7.38267 11.3333 8C11.3333 8.61742 11.2891 9.20187 11.2116 9.75209C12.3436 10.0561 13.2811 10.4846 14.006 10.897C14.4293 10.0209 14.6667 9.03813 14.6667 8C14.6667 6.96187 14.4293 5.97908 14.006 5.10305C13.2812 5.51535 12.3437 5.94391 11.2116 6.24791ZM13.3081 3.96603C12.6916 4.31316 11.9022 4.67293 10.9532 4.93625C10.6835 3.87826 10.3029 2.98461 9.9216 2.26962C9.76862 1.98291 9.61547 1.72467 9.46907 1.49573C11.0245 1.84554 12.3742 2.73899 13.3081 3.96603ZM5.0468 4.93622C4.09779 4.6729 3.30836 4.31313 2.6919 3.96598C3.62583 2.73897 4.97551 1.84554 6.53084 1.49573C6.38453 1.72467 6.23138 1.9829 6.07843 2.2696C5.6971 2.9846 5.31655 3.87823 5.0468 4.93622ZM10.9532 11.0637C10.6835 12.1218 10.3029 13.0154 9.9216 13.7304C9.76862 14.0171 9.61547 14.2754 9.46907 14.5043C11.0245 14.1545 12.3742 13.261 13.3082 12.034C12.6917 11.6868 11.9023 11.3271 10.9532 11.0637ZM8 16C12.4183 16 16 12.4183 16 8C16 3.58172 12.4183 0 8 0C3.58172 0 0 3.58172 0 8C0 12.4183 3.58172 16 8 16Z" fill="white"/>
</svg>
